<svg id="Layer_1" data-name="Layer 1" xmlns="http://www.w3.org/2000/svg" viewBox="0 0 924.67 344.47"><defs><style>.cls-1{fill:#8a8a8d;}</style></defs><title>Artboard 1</title><path class="cls-1" d="M314.74,219.09h66V200H336.45V180H373.5v-17.6H336.45V144.18h43.14V125.12H314.74Zm107.3,0h74.51V200H449.31L496,141.4V125.12H423.9v19.06h47L422,202.81Zm352.54-36,11.25-34.94,10.85,34.94Zm2.52-58-36.13,94h23l7.15-21H800.4l7.28,21h23l-36-94Zm-109.19,0h-21.7v94h67.23V200H667.92ZM547.65,172.24a37.61,37.61,0,0,1,1.46-10.39,29.14,29.14,0,0,1,4.3-9.07,22.41,22.41,0,0,1,7.08-6.42,19.47,19.47,0,0,1,9.93-2.45,19.84,19.84,0,0,1,9.66,2.32,22,22,0,0,1,7.15,6.22,28.63,28.63,0,0,1,4.43,9A36.59,36.59,0,0,1,593.18,172a39.26,39.26,0,0,1-1.39,10.39,28.89,28.89,0,0,1-4.23,9.13,22.83,22.83,0,0,1-7.08,6.55,19.09,19.09,0,0,1-9.92,2.51,20,20,0,0,1-9.86-2.38,21.46,21.46,0,0,1-7.15-6.35,30.16,30.16,0,0,1-4.37-9.07,36.46,36.46,0,0,1-1.52-10.52m-18.72-18.13A48.48,48.48,0,0,0,525.55,172a49.85,49.85,0,0,0,3.24,17.73A49,49,0,0,0,537.93,205,45.93,45.93,0,0,0,552,215.78a40.24,40.24,0,0,0,18.26,4.1,41.16,41.16,0,0,0,18.06-4,45.8,45.8,0,0,0,14.23-10.52,49.53,49.53,0,0,0,12.7-33,50.08,50.08,0,0,0-3.18-17.47A49,49,0,0,0,603,139.55a45.55,45.55,0,0,0-14.1-10.85,40.29,40.29,0,0,0-18.26-4.1,41.8,41.8,0,0,0-18.07,3.9A45.69,45.69,0,0,0,538.33,139a48.06,48.06,0,0,0-9.4,15.15m-288.47-9.93q3.7,0,6.88,3.44t3.18,9.27a14.94,14.94,0,0,1-2.78,9.33,8.15,8.15,0,0,1-6.62,3.64H221.27V144.18Zm1.46-19.06H199.57v94h21.7V188.78h14.16l18.93,30.31h24.48l-21.57-34.94a28.75,28.75,0,0,0,11.25-11.25,32.75,32.75,0,0,0,4.1-16,30.33,30.33,0,0,0-2.32-11.51,34.14,34.14,0,0,0-6.42-10.19,32.57,32.57,0,0,0-9.73-7.28,27.26,27.26,0,0,0-12.24-2.78M132.61,144.18a10.12,10.12,0,0,1,3.71.73,8.84,8.84,0,0,1,3.31,2.32,11.66,11.66,0,0,1,2.32,4,16.82,16.82,0,0,1,.86,5.69q0,6.35-2.78,9.66a8.39,8.39,0,0,1-6.62,3.31H115.67V144.18Zm1.46-19.06H94v94h21.7V188.78h19.06A28.26,28.26,0,0,0,147,186.13a28.65,28.65,0,0,0,9.46-7.15,34,34,0,0,0,6.09-10.19,33,33,0,0,0,2.18-11.91,30.33,30.33,0,0,0-2.32-11.51,34.82,34.82,0,0,0-6.35-10.19,31.74,31.74,0,0,0-9.66-7.28,27.54,27.54,0,0,0-12.37-2.78m769.23,198H21.38V21.38H903.29ZM924.67,0H0V344.47H924.67Z"/></svg>